<svg width="10" height="7" viewBox="0 0 10 7" fill="none" xmlns="http://www.w3.org/2000/svg">
<path d="M8.83412 1.04842C8.781 0.994863 8.7178 0.952352 8.64816 0.923341C8.57853 0.894331 8.50384 0.879395 8.4284 0.879395C8.35297 0.879395 8.27828 0.894331 8.20865 0.923341C8.13901 0.952352 8.07581 0.994863 8.02269 1.04842L3.76555 5.31128L1.97697 3.51699C1.92182 3.46371 1.85671 3.42182 1.78536 3.3937C1.71402 3.36559 1.63783 3.3518 1.56116 3.35313C1.48448 3.35445 1.40882 3.37087 1.33849 3.40144C1.26816 3.432 1.20454 3.47612 1.15126 3.53128C1.09798 3.58643 1.05609 3.65154 1.02797 3.72289C0.999854 3.79424 0.986066 3.87042 0.987392 3.9471C0.988719 4.02377 1.00513 4.09943 1.0357 4.16976C1.06627 4.24009 1.11039 4.30371 1.16555 4.35699L3.35983 6.55128C3.41295 6.60484 3.47615 6.64735 3.54579 6.67636C3.61542 6.70537 3.69011 6.72031 3.76555 6.72031C3.84098 6.72031 3.91567 6.70537 3.9853 6.67636C4.05494 6.64735 4.11814 6.60484 4.17126 6.55128L8.83412 1.88842C8.89212 1.83491 8.93841 1.76997 8.97007 1.69768C9.00173 1.6254 9.01808 1.54734 9.01808 1.46842C9.01808 1.38951 9.00173 1.31145 8.97007 1.23916C8.93841 1.16688 8.89212 1.10193 8.83412 1.04842Z" fill="#F9F871"/>
</svg>
