<svg width="20" height="21" viewBox="0 0 20 21" fill="none" xmlns="http://www.w3.org/2000/svg">
<path d="M17.5201 11.5004C17.3001 11.5004 17.0701 11.4304 16.8501 11.3804C16.4045 11.2822 15.9667 11.1518 15.5401 10.9904C15.0761 10.8216 14.5662 10.8304 14.1084 11.015C13.6505 11.1996 13.2771 11.547 13.0601 11.9904L12.8401 12.4404C11.8661 11.8985 10.971 11.2256 10.1801 10.4404C9.39483 9.64937 8.72188 8.75435 8.18006 7.78036L8.60006 7.50036C9.04342 7.28327 9.39084 6.90989 9.57545 6.45205C9.76006 5.99421 9.76883 5.48427 9.60006 5.02036C9.44128 4.59278 9.31099 4.15515 9.21006 3.71036C9.16006 3.49036 9.12006 3.26036 9.09006 3.03036C8.96862 2.32598 8.59968 1.6881 8.04968 1.2316C7.49968 0.775093 6.80475 0.529965 6.09006 0.540356H3.09006C2.65909 0.53631 2.23231 0.62517 1.83877 0.800887C1.44523 0.976604 1.09417 1.23505 0.809487 1.55864C0.524808 1.88222 0.313191 2.26335 0.189045 2.67607C0.0648983 3.08879 0.0311362 3.52342 0.0900568 3.95036C0.622795 8.13974 2.53609 12.0322 5.52771 15.013C8.51933 17.9938 12.4188 19.8929 16.6101 20.4104H16.9901C17.7275 20.4114 18.4395 20.1409 18.9901 19.6504C19.3064 19.3674 19.5591 19.0205 19.7315 18.6327C19.9039 18.2448 19.992 17.8248 19.9901 17.4004V14.4004C19.9778 13.7057 19.7249 13.0369 19.2744 12.508C18.8239 11.9791 18.2039 11.623 17.5201 11.5004ZM18.0201 17.5004C18.0199 17.6423 17.9895 17.7827 17.9308 17.912C17.8722 18.0413 17.7867 18.1566 17.6801 18.2504C17.5687 18.3474 17.438 18.4198 17.2967 18.4629C17.1554 18.5059 17.0066 18.5187 16.8601 18.5004C13.115 18.0202 9.63629 16.3068 6.97277 13.6306C4.30925 10.9545 2.61247 7.46769 2.15006 3.72036C2.13414 3.57387 2.14809 3.42569 2.19106 3.28475C2.23403 3.14381 2.30513 3.01304 2.40006 2.90036C2.49377 2.79369 2.60912 2.7082 2.73844 2.64957C2.86775 2.59095 3.00807 2.56054 3.15006 2.56036H6.15006C6.3826 2.55518 6.60968 2.63124 6.7922 2.77543C6.97472 2.91962 7.10127 3.12293 7.15006 3.35036C7.19006 3.62369 7.24006 3.89369 7.30006 4.16036C7.41558 4.6875 7.56932 5.20554 7.76006 5.71036L6.36006 6.36036C6.24035 6.41528 6.13268 6.4933 6.04321 6.58995C5.95375 6.6866 5.88426 6.79997 5.83873 6.92355C5.7932 7.04713 5.77253 7.17849 5.7779 7.31008C5.78328 7.44167 5.8146 7.5709 5.87006 7.69036C7.30926 10.7731 9.7873 13.2512 12.8701 14.6904C13.1135 14.7904 13.3866 14.7904 13.6301 14.6904C13.7548 14.6457 13.8694 14.5768 13.9672 14.4875C14.0651 14.3983 14.1442 14.2905 14.2001 14.1704L14.8201 12.7704C15.337 12.9552 15.8646 13.1088 16.4001 13.2304C16.6667 13.2904 16.9367 13.3404 17.2101 13.3804C17.4375 13.4291 17.6408 13.5557 17.785 13.7382C17.9292 13.9207 18.0052 14.1478 18.0001 14.3804L18.0201 17.5004Z" fill="#8290FF"/>
</svg>
